<?xml version="1.0" encoding="utf-8"?>
<!-- Generator: Adobe Illustrator 21.0.0, SVG Export Plug-In . SVG Version: 6.00 Build 0)  -->
<svg version="1.1" id="Layer_1" xmlns="http://www.w3.org/2000/svg" xmlns:xlink="http://www.w3.org/1999/xlink" x="0px" y="0px"
	 viewBox="0 0 40 142.5" style="enable-background:new 0 0 40 142.5;" xml:space="preserve">
<style type="text/css">
	.st0{fill:#FFFFFF;}
</style>
<g>
	<circle class="st0" cx="2.3" cy="1.8" r="1.1"/>
	<circle class="st0" cx="8.3" cy="1.8" r="1.1"/>
	<circle class="st0" cx="14.3" cy="1.8" r="1.1"/>
	<circle class="st0" cx="20.3" cy="1.8" r="1.1"/>
	<circle class="st0" cx="26.3" cy="1.8" r="1.1"/>
	<circle class="st0" cx="32.3" cy="1.8" r="1.1"/>
	<circle class="st0" cx="38.3" cy="1.8" r="1.1"/>
	<circle class="st0" cx="2.3" cy="7.8" r="1.1"/>
	<circle class="st0" cx="8.3" cy="7.8" r="1.1"/>
	<circle class="st0" cx="14.3" cy="7.8" r="1.1"/>
	<circle class="st0" cx="20.3" cy="7.8" r="1.1"/>
	<circle class="st0" cx="26.3" cy="7.8" r="1.1"/>
	<circle class="st0" cx="32.3" cy="7.8" r="1.1"/>
	<circle class="st0" cx="38.3" cy="7.8" r="1.1"/>
	<circle class="st0" cx="2.3" cy="13.8" r="1.1"/>
	<circle class="st0" cx="8.3" cy="13.8" r="1.1"/>
	<circle class="st0" cx="14.3" cy="13.8" r="1.1"/>
	<circle class="st0" cx="20.3" cy="13.8" r="1.1"/>
	<circle class="st0" cx="26.3" cy="13.8" r="1.1"/>
	<circle class="st0" cx="32.3" cy="13.8" r="1.1"/>
	<circle class="st0" cx="38.3" cy="13.8" r="1.1"/>
	<circle class="st0" cx="2.3" cy="19.8" r="1.1"/>
	<circle class="st0" cx="8.3" cy="19.8" r="1.1"/>
	<circle class="st0" cx="14.3" cy="19.8" r="1.1"/>
	<circle class="st0" cx="20.3" cy="19.8" r="1.1"/>
	<circle class="st0" cx="26.3" cy="19.8" r="1.1"/>
	<circle class="st0" cx="32.3" cy="19.8" r="1.1"/>
	<circle class="st0" cx="38.3" cy="19.8" r="1.1"/>
	<circle class="st0" cx="2.3" cy="25.8" r="1.1"/>
	<circle class="st0" cx="8.3" cy="25.8" r="1.1"/>
	<circle class="st0" cx="14.3" cy="25.8" r="1.1"/>
	<circle class="st0" cx="20.3" cy="25.8" r="1.1"/>
	<circle class="st0" cx="26.3" cy="25.8" r="1.1"/>
	<circle class="st0" cx="32.3" cy="25.8" r="1.1"/>
	<circle class="st0" cx="38.3" cy="25.8" r="1.1"/>
	<circle class="st0" cx="2.3" cy="31.8" r="1.1"/>
	<circle class="st0" cx="8.3" cy="31.8" r="1.1"/>
	<circle class="st0" cx="14.3" cy="31.8" r="1.1"/>
	<circle class="st0" cx="20.3" cy="31.8" r="1.1"/>
	<circle class="st0" cx="26.3" cy="31.8" r="1.1"/>
	<circle class="st0" cx="32.3" cy="31.8" r="1.1"/>
	<circle class="st0" cx="38.3" cy="31.8" r="1.1"/>
	<circle class="st0" cx="2.3" cy="37.8" r="1.1"/>
	<circle class="st0" cx="8.3" cy="37.8" r="1.1"/>
	<circle class="st0" cx="14.3" cy="37.8" r="1.1"/>
	<circle class="st0" cx="20.3" cy="37.8" r="1.1"/>
	<circle class="st0" cx="26.3" cy="37.8" r="1.1"/>
	<circle class="st0" cx="32.3" cy="37.8" r="1.1"/>
	<circle class="st0" cx="38.3" cy="37.8" r="1.1"/>
	<circle class="st0" cx="2.3" cy="43.8" r="1.1"/>
	<circle class="st0" cx="8.3" cy="43.8" r="1.1"/>
	<circle class="st0" cx="14.3" cy="43.8" r="1.1"/>
	<circle class="st0" cx="20.3" cy="43.8" r="1.1"/>
	<circle class="st0" cx="26.3" cy="43.8" r="1.1"/>
	<circle class="st0" cx="32.3" cy="43.8" r="1.1"/>
	<circle class="st0" cx="38.3" cy="43.8" r="1.1"/>
	<circle class="st0" cx="2.3" cy="49.8" r="1.1"/>
	<circle class="st0" cx="8.3" cy="49.8" r="1.1"/>
	<circle class="st0" cx="14.3" cy="49.8" r="1.1"/>
	<circle class="st0" cx="20.3" cy="49.8" r="1.1"/>
	<circle class="st0" cx="26.3" cy="49.8" r="1.1"/>
	<circle class="st0" cx="32.3" cy="49.8" r="1.1"/>
	<circle class="st0" cx="38.3" cy="49.8" r="1.1"/>
	<circle class="st0" cx="2.3" cy="55.8" r="1.1"/>
	<circle class="st0" cx="8.3" cy="55.8" r="1.1"/>
	<circle class="st0" cx="14.3" cy="55.8" r="1.1"/>
	<circle class="st0" cx="20.3" cy="55.8" r="1.1"/>
	<circle class="st0" cx="26.3" cy="55.8" r="1.1"/>
	<circle class="st0" cx="32.3" cy="55.8" r="1.1"/>
	<circle class="st0" cx="38.3" cy="55.8" r="1.1"/>
	<circle class="st0" cx="2.3" cy="61.8" r="1.1"/>
	<circle class="st0" cx="8.3" cy="61.8" r="1.1"/>
	<circle class="st0" cx="14.3" cy="61.8" r="1.1"/>
	<circle class="st0" cx="20.3" cy="61.8" r="1.1"/>
	<circle class="st0" cx="26.3" cy="61.8" r="1.1"/>
	<circle class="st0" cx="32.3" cy="61.8" r="1.1"/>
	<circle class="st0" cx="38.3" cy="61.8" r="1.1"/>
	<circle class="st0" cx="2.3" cy="67.8" r="1.1"/>
	<circle class="st0" cx="8.3" cy="67.8" r="1.1"/>
	<circle class="st0" cx="14.3" cy="67.8" r="1.1"/>
	<circle class="st0" cx="20.3" cy="67.8" r="1.1"/>
	<circle class="st0" cx="26.3" cy="67.8" r="1.1"/>
	<circle class="st0" cx="32.3" cy="67.8" r="1.1"/>
	<circle class="st0" cx="38.3" cy="67.8" r="1.1"/>
	<circle class="st0" cx="2.3" cy="73.8" r="1.1"/>
	<circle class="st0" cx="8.3" cy="73.8" r="1.1"/>
	<circle class="st0" cx="14.3" cy="73.8" r="1.1"/>
	<circle class="st0" cx="20.3" cy="73.8" r="1.1"/>
	<circle class="st0" cx="26.3" cy="73.8" r="1.1"/>
	<circle class="st0" cx="32.3" cy="73.8" r="1.1"/>
	<circle class="st0" cx="38.3" cy="73.8" r="1.1"/>
	<circle class="st0" cx="2.3" cy="79.8" r="1.1"/>
	<circle class="st0" cx="8.3" cy="79.8" r="1.1"/>
	<circle class="st0" cx="14.3" cy="79.8" r="1.1"/>
	<circle class="st0" cx="20.3" cy="79.8" r="1.1"/>
	<circle class="st0" cx="26.3" cy="79.8" r="1.1"/>
	<circle class="st0" cx="32.3" cy="79.8" r="1.1"/>
	<circle class="st0" cx="38.3" cy="79.8" r="1.1"/>
	<circle class="st0" cx="2.3" cy="85.8" r="1.1"/>
	<circle class="st0" cx="8.3" cy="85.8" r="1.1"/>
	<circle class="st0" cx="14.3" cy="85.8" r="1.1"/>
	<circle class="st0" cx="20.3" cy="85.8" r="1.1"/>
	<circle class="st0" cx="26.3" cy="85.8" r="1.1"/>
	<circle class="st0" cx="32.3" cy="85.8" r="1.1"/>
	<circle class="st0" cx="38.3" cy="85.8" r="1.1"/>
	<circle class="st0" cx="2.3" cy="91.8" r="1.1"/>
	<circle class="st0" cx="8.3" cy="91.8" r="1.1"/>
	<circle class="st0" cx="14.3" cy="91.8" r="1.1"/>
	<circle class="st0" cx="20.3" cy="91.8" r="1.1"/>
	<circle class="st0" cx="26.3" cy="91.8" r="1.1"/>
	<circle class="st0" cx="32.3" cy="91.8" r="1.1"/>
	<circle class="st0" cx="38.3" cy="91.8" r="1.1"/>
	<circle class="st0" cx="2.3" cy="97.8" r="1.1"/>
	<circle class="st0" cx="8.3" cy="97.8" r="1.1"/>
	<circle class="st0" cx="14.3" cy="97.8" r="1.1"/>
	<circle class="st0" cx="20.3" cy="97.8" r="1.1"/>
	<circle class="st0" cx="26.3" cy="97.8" r="1.1"/>
	<circle class="st0" cx="32.3" cy="97.8" r="1.1"/>
	<circle class="st0" cx="38.3" cy="97.8" r="1.1"/>
	<circle class="st0" cx="2.3" cy="103.8" r="1.1"/>
	<circle class="st0" cx="8.3" cy="103.8" r="1.1"/>
	<circle class="st0" cx="14.3" cy="103.8" r="1.1"/>
	<circle class="st0" cx="20.3" cy="103.8" r="1.1"/>
	<circle class="st0" cx="26.3" cy="103.8" r="1.1"/>
	<circle class="st0" cx="32.3" cy="103.8" r="1.1"/>
	<circle class="st0" cx="38.3" cy="103.8" r="1.1"/>
	<circle class="st0" cx="2.3" cy="109.8" r="1.1"/>
	<circle class="st0" cx="8.3" cy="109.8" r="1.1"/>
	<circle class="st0" cx="14.3" cy="109.8" r="1.1"/>
	<circle class="st0" cx="20.3" cy="109.8" r="1.1"/>
	<circle class="st0" cx="26.3" cy="109.8" r="1.1"/>
	<circle class="st0" cx="32.3" cy="109.8" r="1.1"/>
	<circle class="st0" cx="38.3" cy="109.8" r="1.1"/>
	<circle class="st0" cx="2.3" cy="115.8" r="1.1"/>
	<circle class="st0" cx="8.3" cy="115.8" r="1.1"/>
	<circle class="st0" cx="14.3" cy="115.8" r="1.1"/>
	<circle class="st0" cx="20.3" cy="115.8" r="1.1"/>
	<circle class="st0" cx="26.3" cy="115.8" r="1.1"/>
	<circle class="st0" cx="32.3" cy="115.8" r="1.1"/>
	<circle class="st0" cx="38.3" cy="115.8" r="1.1"/>
	<circle class="st0" cx="2.3" cy="121.8" r="1.1"/>
	<circle class="st0" cx="8.3" cy="121.8" r="1.1"/>
	<circle class="st0" cx="14.3" cy="121.8" r="1.1"/>
	<circle class="st0" cx="20.3" cy="121.8" r="1.1"/>
	<circle class="st0" cx="26.3" cy="121.8" r="1.1"/>
	<circle class="st0" cx="32.3" cy="121.8" r="1.1"/>
	<circle class="st0" cx="38.3" cy="121.8" r="1.1"/>
	<circle class="st0" cx="2.3" cy="127.8" r="1.1"/>
	<circle class="st0" cx="8.3" cy="127.8" r="1.1"/>
	<circle class="st0" cx="14.3" cy="127.8" r="1.1"/>
	<circle class="st0" cx="20.3" cy="127.8" r="1.1"/>
	<circle class="st0" cx="26.3" cy="127.8" r="1.1"/>
	<circle class="st0" cx="32.3" cy="127.8" r="1.1"/>
	<circle class="st0" cx="38.3" cy="127.8" r="1.1"/>
	<circle class="st0" cx="2.3" cy="133.8" r="1.1"/>
	<circle class="st0" cx="8.3" cy="133.8" r="1.1"/>
	<circle class="st0" cx="14.3" cy="133.8" r="1.1"/>
	<circle class="st0" cx="20.3" cy="133.8" r="1.1"/>
	<circle class="st0" cx="26.3" cy="133.8" r="1.1"/>
	<circle class="st0" cx="32.3" cy="133.8" r="1.1"/>
	<circle class="st0" cx="38.3" cy="133.8" r="1.1"/>
	<circle class="st0" cx="2.3" cy="139.8" r="1.1"/>
	<circle class="st0" cx="8.3" cy="139.8" r="1.1"/>
	<circle class="st0" cx="14.3" cy="139.8" r="1.1"/>
	<circle class="st0" cx="20.3" cy="139.8" r="1.1"/>
	<circle class="st0" cx="26.3" cy="139.8" r="1.1"/>
	<circle class="st0" cx="32.3" cy="139.8" r="1.1"/>
	<circle class="st0" cx="38.3" cy="139.8" r="1.1"/>
</g>
</svg>
