<?xml version="1.0" encoding="utf-8"?>
<!-- Generator: Adobe Illustrator 21.0.0, SVG Export Plug-In . SVG Version: 6.00 Build 0)  -->
<svg version="1.1" id="Layer_1" xmlns="http://www.w3.org/2000/svg" xmlns:xlink="http://www.w3.org/1999/xlink" x="0px" y="0px"
	 viewBox="0 0 199 199" style="enable-background:new 0 0 199 199;" xml:space="preserve">
<style type="text/css">
	.st0{fill:#FFFFFF;}
</style>
<g>
	<g>
		<path class="st0" d="M99.9,198.4c-26.4,0-51.3-10.3-69.9-28.9S1,125.9,1,99.5C1,73,11.3,48.2,29.9,29.5S73.4,0.6,99.9,0.6
			c26.4,0,51.3,10.3,69.9,28.9c18.7,18.7,28.9,43.5,28.9,69.9c0,26.4-10.3,51.3-28.9,69.9C151.2,188.1,126.3,198.4,99.9,198.4z
			 M99.9,1.1C45.6,1.1,1.5,45.2,1.5,99.5c0,54.3,44.1,98.4,98.4,98.4c54.3,0,98.4-44.1,98.4-98.4C198.3,45.2,154.1,1.1,99.9,1.1z"/>
	</g>
	<g>
		<path class="st0" d="M99.9,186.1c-47.7,0-86.6-38.8-86.6-86.6c0-47.7,38.8-86.6,86.6-86.6c47.7,0,86.6,38.8,86.6,86.6
			C186.4,147.2,147.6,186.1,99.9,186.1z M99.9,13.4c-47.5,0-86.1,38.6-86.1,86.1c0,47.5,38.6,86.1,86.1,86.1
			c47.5,0,86.1-38.6,86.1-86.1C185.9,52,147.3,13.4,99.9,13.4z"/>
	</g>
	<g>
		<path class="st0" d="M99.9,173.7c-40.9,0-74.2-33.3-74.2-74.2c0-40.9,33.3-74.2,74.2-74.2c40.9,0,74.2,33.3,74.2,74.2
			C174.1,140.4,140.8,173.7,99.9,173.7z M99.9,25.8c-40.7,0-73.7,33.1-73.7,73.7c0,40.7,33.1,73.7,73.7,73.7
			c40.7,0,73.7-33.1,73.7-73.7C173.6,58.8,140.5,25.8,99.9,25.8z"/>
	</g>
	<g>
		<path class="st0" d="M99.9,161.4c-34.1,0-61.9-27.8-61.9-61.9c0-34.1,27.8-61.9,61.9-61.9c34.1,0,61.9,27.8,61.9,61.9
			C161.8,133.6,134,161.4,99.9,161.4z M99.9,38.1c-33.9,0-61.4,27.5-61.4,61.4c0,33.9,27.5,61.4,61.4,61.4
			c33.9,0,61.4-27.5,61.4-61.4C161.3,65.6,133.7,38.1,99.9,38.1z"/>
	</g>
	<g>
		<path class="st0" d="M99.9,149.1c-27.3,0-49.6-22.2-49.6-49.6c0-27.3,22.2-49.6,49.6-49.6c27.3,0,49.6,22.2,49.6,49.6
			C149.4,126.8,127.2,149.1,99.9,149.1z M99.9,50.4c-27.1,0-49.1,22-49.1,49.1c0,27.1,22,49.1,49.1,49.1c27.1,0,49.1-22,49.1-49.1
			C148.9,72.4,126.9,50.4,99.9,50.4z"/>
	</g>
</g>
</svg>
